PathFileType	4	(X/Y/Z)	/Users/itak/Documents/Research/Walk-IL/dataset/trc/00525_00183.trc
DataRate	CameraRate	NumFrames	NumMarkers	Units	OrigDataRate	OrigDataStartFrame	OrigNumFrames
100.000000	100.000000	4	53	mm	100.000000	279	559
Frame#	Time	RPSI			LPSI			L3			STRN			T10			C7			CLAV			RBAK			LBAK			LSHO			LUPA			LAEL			LAOL			LWTS			LWPS			LFRA			LIFD			LHPS			LHTS			RSHO			RUPA			RAEL			RAOL			RWTS			RWPS			RFRA			RIFD			RHTS			RHPS			RBHD			LFHD			RFHD			LBHD			LHIP			RHIP			RASI			LASI			LKNE			LTHI			LANK			LTIP			LTOE			LMT1			LMT5			LHEE			RKNE			RTHI			RANK			RTIP			RTOE			RMT1			RMT5			RHEE			
		X1	Y1	Z1	X2	Y2	Z2	X3	Y3	Z3	X4	Y4	Z4	X5	Y5	Z5	X6	Y6	Z6	X7	Y7	Z7	X8	Y8	Z8	X9	Y9	Z9	X10	Y10	Z10	X11	Y11	Z11	X12	Y12	Z12	X13	Y13	Z13	X14	Y14	Z14	X15	Y15	Z15	X16	Y16	Z16	X17	Y17	Z17	X18	Y18	Z18	X19	Y19	Z19	X20	Y20	Z20	X21	Y21	Z21	X22	Y22	Z22	X23	Y23	Z23	X24	Y24	Z24	X25	Y25	Z25	X26	Y26	Z26	X27	Y27	Z27	X28	Y28	Z28	X29	Y29	Z29	X30	Y30	Z30	X31	Y31	Z31	X32	Y32	Z32	X33	Y33	Z33	X34	Y34	Z34	X35	Y35	Z35	X36	Y36	Z36	X37	Y37	Z37	X38	Y38	Z38	X39	Y39	Z39	X40	Y40	Z40	X41	Y41	Z41	X42	Y42	Z42	X43	Y43	Z43	X44	Y44	Z44	X45	Y45	Z45	X46	Y46	Z46	X47	Y47	Z47	X48	Y48	Z48	X49	Y49	Z49	X50	Y50	Z50	X51	Y51	Z51	X52	Y52	Z52	X53	Y53	Z53	

280	2.79	-472.9039001464844	945.0358276367188	-70.21778869628906	-411.9692077636719	947.3204345703125	-178.5218505859375	-439.5302734375	1022.580383300781	-120.470703125	-231.4735870361328	1178.2421875	-23.72343063354492	-447.5346984863281	1127.01806640625	-115.8258209228516	-405.642578125	1355.790283203125	-91.34737396240234	-262.2308654785156	1274.399047851562	-35.87535858154297	-483.5421447753906	1233.71533203125	-31.65437126159668	-397.05126953125	1304.021728515625	-182.1983795166016	-281.8154602050781	1349.10302734375	-213.9614562988281	-274.9582824707031	1224.643188476562	-279.1461791992188	-260.5207214355469	1015.462036132812	-309.0909729003906	-350.3391723632812	1006.20947265625	-267.9822082519531	-193.7933959960938	821.4293823242188	-249.0746765136719	-259.982421875	791.7777709960938	-307.8822326660156	-246.7978515625	930.9517211914062	-305.1028747558594	-204.5874938964844	663.89013671875	-239.3216552734375	-244.7727661132812	735.0096435546875	-294.4122009277344	-186.7359161376953	742.2263793945312	-265.6278991699219	-408.992919921875	1347.99267578125	66.09471130371094	-449.2403869628906	1281.9990234375	111.9382858276367	-470.9095458984375	1014.73486328125	150.9915771484375	-504.2398071289062	1000.450805664062	95.23023986816406	-366.0146789550781	812.2056884765625	157.2019653320312	-454.1068420410156	790.9096069335938	174.4045104980469	-470.3287353515625	960.1071166992188	158.8644714355469	-368.6935119628906	651.712158203125	162.1779937744141	-362.2636413574219	718.49560546875	185.7841796875	-433.7673645019531	716.6167602539062	183.0998382568359	-402.7227783203125	1507.483032226562	-5.663052082061768	-235.0747985839844	1572.868041992188	-93.19548034667969	-285.470458984375	1573.934814453125	23.60968780517578	-352.7958068847656	1500.736938476562	-156.5670013427734	-249.2370147705078	880.735107421875	-236.0131988525391	-446.3254699707031	837.3267211914062	85.82917785644531	-325.7511901855469	882.273193359375	81.90805053710938	-210.7960662841797	913.5596313476562	-127.6992492675781	-155.4701690673828	480.0445556640625	-112.8334274291992	-174.5564575195312	629.8792114257812	-165.7086029052734	-197.1478424072266	46.57324981689453	-114.0619735717773	-154.7342681884766	324.429443359375	-113.6605987548828	-47.65315246582031	40.40992736816406	29.00593757629395	-131.1225433349609	44.65825271606445	23.9452018737793	-98.04116058349609	43.21738052368164	-72.49677276611328	-264.7638549804688	45.45897674560547	-76.59020233154297	-447.5387878417969	457.1455688476562	27.81616592407227	-423.720947265625	705.8404541015625	88.75112152099609	-734.4249267578125	162.8737945556641	-126.6350784301758	-508.4250183105469	330.7879028320312	-9.577912330627441	-602.804931640625	39.32367324829102	-108.2434692382812	-618.4783935546875	69.519287109375	-161.7404632568359	-678.8299560546875	73.17774963378906	-86.01644134521484	-746.5208129882812	200.8270111083984	-184.5579986572266	
281	2.8	-463.9710083007812	945.9059448242188	-67.74666595458984	-402.5675659179688	948.9879150390625	-175.7853088378906	-430.1132202148438	1024.107177734375	-117.841423034668	-222.5459899902344	1179.926391601562	-20.64776420593262	-438.15966796875	1128.370971679688	-113.2275009155273	-396.8541564941406	1357.265625	-88.63008880615234	-253.4595489501953	1276.06640625	-32.83652114868164	-474.7015075683594	1235.055786132812	-29.25360679626465	-387.8775939941406	1305.54638671875	-179.5209503173828	-272.6228332519531	1350.892822265625	-210.8489379882812	-265.5227355957031	1226.568359375	-276.2311096191406	-250.8052520751953	1017.438537597656	-306.3525695800781	-340.7485656738281	1008.044067382812	-265.3649597167969	-183.8962707519531	823.5155639648438	-245.8679656982422	-249.4438781738281	793.65283203125	-305.2583312988281	-236.7970123291016	932.9730224609375	-302.2854919433594	-194.1912994384766	666.0802001953125	-235.9613342285156	-234.0802764892578	737.027099609375	-291.7841186523438	-176.4917907714844	744.3087768554688	-262.4585876464844	-400.5968933105469	1349.424682617188	68.69406890869141	-440.8688354492188	1283.425903320312	114.4733963012695	-462.7979736328125	1016.206604003906	153.0795135498047	-495.798583984375	1002.126342773438	97.10221099853516	-358.8699340820312	813.1980590820312	159.6380920410156	-447.1740112304688	792.2001953125	176.1683654785156	-462.4394836425781	961.6324462890625	160.9005279541016	-362.2618103027344	652.6503295898438	163.6789703369141	-355.6980895996094	719.2928466796875	187.7265625	-427.2476806640625	717.7328491210938	184.6590423583984	-394.5426940917969	1508.7666015625	-2.66824746131897	-226.8057861328125	1574.659423828125	-89.72378540039062	-277.4257202148438	1575.379028320312	26.97026443481445	-344.2518615722656	1502.470458984375	-153.4985504150391	-239.5612945556641	882.672607421875	-233.02734375	-437.1465148925781	837.9476928710938	88.30481719970703	-316.78759765625	883.7423095703125	84.66244506835938	-201.4362640380859	915.1498413085938	-124.6252288818359	-151.3105010986328	479.5030212402344	-112.6954345703125	-168.1226654052734	630.067138671875	-164.5479125976562	-196.9089660644531	46.43572616577148	-114.1418838500977	-152.0376434326172	323.8376159667969	-113.7523498535156	-47.29398727416992	39.33238983154297	29.09370613098145	-130.8718566894531	44.56227111816406	23.82686233520508	-97.60861968994141	42.72658920288086	-72.58449554443359	-264.6018981933594	45.5701789855957	-76.70993041992188	-431.603759765625	456.733642578125	36.51774597167969	-413.0300598144531	706.7611083984375	92.29768371582031	-723.3268432617188	172.1199340820312	-120.6315155029297	-493.1750183105469	332.3934020996094	-1.367065668106079	-597.0029907226562	39.4434700012207	-104.5116271972656	-611.4759521484375	73.70911407470703	-157.4810180664062	-672.1011962890625	79.15109252929688	-81.77963256835938	-733.6174926757812	211.2369842529297	-178.1212310791016	
282	2.81	-455.2864074707031	946.7167358398438	-65.42292022705078	-393.3464050292969	950.619873046875	-173.146240234375	-420.8552856445312	1025.629638671875	-115.4059829711914	-213.8492584228516	1181.520141601562	-17.47047233581543	-428.8905334472656	1129.728271484375	-110.7598571777344	-388.1324157714844	1358.72705078125	-85.9632568359375	-244.8428497314453	1277.655395507812	-29.71965217590332	-466.0408325195312	1236.388671875	-26.99674797058105	-378.712646484375	1307.0654296875	-176.918212890625	-263.3778991699219	1352.6064453125	-207.6732635498047	-255.9929351806641	1228.43310546875	-273.2871398925781	-240.9487152099609	1019.346923828125	-303.5995788574219	-331.1250915527344	1009.858764648438	-263.0021667480469	-174.0188140869141	825.6525268554688	-242.3627014160156	-238.5888671875	795.5084838867188	-302.6242980957031	-226.6742401123047	934.931396484375	-299.39697265625	-183.565185546875	668.3008422851562	-232.5150146484375	-222.9091033935547	739.0807495117188	-289.2529602050781	-166.0342254638672	746.4966430664062	-259.0262451171875	-392.4324645996094	1350.798828125	71.2548828125	-432.7638244628906	1284.765502929688	116.9093475341797	-454.7899169921875	1017.582824707031	155.2230682373047	-487.5187072753906	1003.637145996094	99.08352661132812	-351.6402587890625	814.1966552734375	162.0908966064453	-440.1173095703125	793.4448852539062	178.0430908203125	-454.59130859375	963.0584106445312	163.0092163085938	-355.61328125	653.593994140625	165.2531127929688	-348.9424133300781	720.123046875	189.70556640625	-420.5405883789062	718.8258056640625	186.3349456787109	-386.4241943359375	1510.000732421875	0.3277714252471924	-218.5927276611328	1576.42333984375	-86.19315338134766	-269.4637451171875	1576.769653320312	30.38278388977051	-335.7461853027344	1504.16845703125	-150.4052276611328	-230.0350036621094	884.5184326171875	-230.0104675292969	-428.3338317871094	838.6130981445312	90.65937042236328	-308.1355590820312	885.2950439453125	87.52496337890625	-192.3414001464844	916.6106567382812	-121.4700622558594	-147.4550476074219	478.9570617675781	-112.8026885986328	-162.03466796875	630.203125	-163.5531158447266	-196.732421875	46.27472686767578	-114.2832489013672	-149.5936889648438	323.2640075683594	-114.0833969116211	-47.04409027099609	38.57172012329102	29.04253005981445	-130.6578369140625	44.56320953369141	23.64594268798828	-97.24755859375	42.25293350219727	-72.76432800292969	-264.4752807617188	45.64758682250977	-76.85699462890625	-415.4854431152344	456.4659118652344	45.37290191650391	-402.71142578125	707.775390625	95.83914947509766	-711.179931640625	180.9632415771484	-114.4043426513672	-477.3895568847656	334.1293029785156	6.890767097473145	-589.5321655273438	40.20254898071289	-99.58699035644531	-602.887451171875	78.23825836181641	-152.2321014404297	-663.8758544921875	85.57284545898438	-76.69029235839844	-719.789306640625	220.7995300292969	-171.7063903808594	
283	2.82	-446.8428039550781	947.465576171875	-63.19846343994141	-384.3336486816406	952.2020874023438	-170.5637512207031	-411.7885131835938	1027.135375976562	-113.1472625732422	-205.3809356689453	1183.028198242188	-14.20534896850586	-419.7661437988281	1131.097290039062	-108.4016036987305	-379.48583984375	1360.170654296875	-83.34366607666016	-236.3841552734375	1279.163452148438	-26.53228569030762	-457.55859375	1237.719482421875	-24.85947799682617	-369.5850219726562	1308.572509765625	-174.3784942626953	-254.1089019775391	1354.23974609375	-204.4449615478516	-246.3810577392578	1230.231323242188	-270.3070983886719	-230.9397430419922	1021.180297851562	-300.8041076660156	-321.451171875	1011.640014648438	-260.8931884765625	-164.1695098876953	827.8139038085938	-238.5776214599609	-227.4647369384766	797.3433837890625	-299.9589233398438	-216.4436340332031	936.827880859375	-296.42724609375	-172.7583923339844	670.5202026367188	-229.0216522216797	-211.3213806152344	741.16259765625	-286.795654296875	-155.4009399414062	748.772705078125	-255.3329772949219	-384.4886779785156	1352.120361328125	73.78890228271484	-424.9141845703125	1286.028564453125	119.2552947998047	-446.9013366699219	1018.866333007812	157.3982696533203	-479.4137878417969	1004.993041992188	101.1428070068359	-344.3303833007812	815.2122802734375	164.5554351806641	-432.9400024414062	794.6499633789062	180.0167541503906	-446.8064575195312	964.385009765625	165.1648406982422	-348.7449645996094	654.5587158203125	166.9619903564453	-341.9956970214844	721.0056762695312	191.7513580322266	-413.6454467773438	719.9116821289062	188.1460418701172	-378.3580932617188	1511.182373046875	3.326909780502319	-210.4321594238281	1578.152465820312	-82.60391235351562	-261.5801391601562	1578.107788085938	33.84510040283203	-327.2804870605469	1505.82373046875	-147.2820129394531	-220.7374877929688	886.256103515625	-226.9886016845703	-419.8338012695312	839.3428955078125	92.94911956787109	-299.7530822753906	886.9284057617188	90.47211456298828	-183.5047454833984	917.9713745117188	-118.2773742675781	-143.83154296875	478.4445495605469	-113.0323638916016	-156.2089233398438	630.3426513671875	-162.6237487792969	-196.5974273681641	46.10492324829102	-114.4725646972656	-147.3536682128906	322.7440795898438	-114.5596084594727	-46.87498092651367	38.07259750366211	28.89254570007324	-130.4773101806641	44.63796615600586	23.42232894897461	-96.95208740234375	41.80598831176758	-73.00540161132812	-264.372802734375	45.69992065429688	-77.02777862548828	-399.2605895996094	456.45947265625	54.20898818969727	-392.7378845214844	708.8981323242188	99.38037109375	-698.0130615234375	189.0947113037109	-108.0133743286133	-461.1959838867188	336.0360412597656	15.14137268066406	-580.2211303710938	41.6734619140625	-93.3372802734375	-592.54150390625	82.87940979003906	-145.8989868164062	-654.0003662109375	92.14435577392578	-70.69321441650391	-705.0902709960938	229.2111663818359	-165.3878479003906	
